<?xml version="1.0" encoding="utf-8"?>
<!-- Generator: Adobe Illustrator 26.3.0, SVG Export Plug-In . SVG Version: 6.00 Build 0)  -->
<svg version="1.1" id="Ebene_1" xmlns="http://www.w3.org/2000/svg" xmlns:xlink="http://www.w3.org/1999/xlink" x="0px" y="0px"
	 viewBox="0 0 32 32" style="enable-background:new 0 0 32 32;" xml:space="preserve">
<style type="text/css">
	.st0{fill:#FFFFFF;}
</style>
<path class="st0" d="M24.9,14.3c0.7,0,1.2,0.1,1.7,0.1V5.9L13.3,0L0,5.9v8.7C0,22.7,5.7,30.1,13.3,32c0.9-0.3,1.9-0.5,2.8-0.9
	c-1.2-1.7-2-3.9-2-6.1C14.3,19.1,19.1,14.3,24.9,14.3z"/>
<path class="st0" d="M24.9,17.7c-3.9,0-7.1,3.2-7.1,7.1s3.2,7.1,7.1,7.1s7.1-3.2,7.1-7.1S28.8,17.7,24.9,17.7z"/>
</svg>
